{"title":"Salem's Lot (1979) - Uncut 184 min","uid":6493560,"size":652578437,"categoryP":"video","categoryS":"movies","magnet":"?xt=urn:btih:a0ec75a4672302afcad425f7b8344fff14dcf658&amp;dn=Salem%5C%27s+Lot+%281979%29+-+Uncut+184+min&amp;tr=udp%3A%2F%2Ftracker.openbittorrent.com%3A80&amp;tr=udp%3A%2F%2Fopen.demonii.com%3A1337&amp;tr=udp%3A%2F%2Ftracker.coppersurfer.tk%3A6969&amp;tr=udp%3A%2F%2Fexodus.desync.com%3A6969","seeders":0,"leechers":0,"uploader":"Robin5555","files":6,"time":1308984116,"description":"***************************** TPB IS BENEDICTION TO ME ****************************\n*                                                                                 *\n*\t\t\t\t\t\t\t\t\t\t  *\n*\t        *                       *                       *\t          *\n*              ***                     ***                     ***                *\n*\t      *****                   *****                   *****\t\t  *\n*            *******                 *******                 *******\t\t  *\n*           *********\t\t    *********               *********             *\n*          ***********\t           ***********             *********** \t\t  *\n*         *************           *************           *************           *\n*        ***************         ***************         ***************\t  *\n*       *****************       *****************       *****************         *\n*      *******************     *******************     *******************        *\n*     *** TPB IS D BEST ***   *** TPB IS D BEST ***   *** TPB IS D BEST *** \t  *\n*      *******************     *******************     *******************\t  *\n*       *****************       *****************       *****************         *\n*        ***************         ***************         ***************          *\n*         *************           *************           *************\t \t  *\n*          ***********             ***********             ***********            *\n*           *********               *********               *********             *\n*            *******                 *******                 *******              *\n*             *****                   *****\t\t      *****               *\n*\t       ***                     ***                     ***                *\n*\t        *                       *                       *                 *\n*\t\t\t\t\t\t\t\t\t\t  *\n*\t\t\t\t\t\t\t\t\t\t  *\n***************************** TPB IS BENEDICTION TO ME ****************************\n\n\n\nScreen Link :---\n &lt;a href=&quot;\nhttp://www.shotpix.com/images/38869754494726637076.jpg&quot; rel=&quot;nofollow&quot; target=&quot;_NEW&quot;&gt;\nhttp://www.shotpix.com/images/38869754494726637076.jpg&lt;/a&gt;\n &lt;a href=&quot;\nhttp://www.shotpix.com/images/33861282801954283569.jpg&quot; rel=&quot;nofollow&quot; target=&quot;_NEW&quot;&gt;\nhttp://www.shotpix.com/images/33861282801954283569.jpg&lt;/a&gt;\n &lt;a href=&quot;\nhttp://www.shotpix.com/images/03056343025029633807.jpg&quot; rel=&quot;nofollow&quot; target=&quot;_NEW&quot;&gt;\nhttp://www.shotpix.com/images/03056343025029633807.jpg&lt;/a&gt;\n &lt;a href=&quot;\nhttp://www.shotpix.com/images/06163269010000495675.jpg&quot; rel=&quot;nofollow&quot; target=&quot;_NEW&quot;&gt;\nhttp://www.shotpix.com/images/06163269010000495675.jpg&lt;/a&gt;\n &lt;a href=&quot;\nhttp://www.shotpix.com/images/93116604935399172375.jpg&quot; rel=&quot;nofollow&quot; target=&quot;_NEW&quot;&gt;\nhttp://www.shotpix.com/images/93116604935399172375.jpg&lt;/a&gt;\n &lt;a href=&quot;\nhttp://www.shotpix.com/images/55195900096867371613.jpg&quot; rel=&quot;nofollow&quot; target=&quot;_NEW&quot;&gt;\nhttp://www.shotpix.com/images/55195900096867371613.jpg&lt;/a&gt;\n\n\n\nGeneral Info :---  (Disc 1) :---\n\n\n\nFormat                           : Matroska\nFile size                        : 311 MiB\nDuration                         : 1h 32mn\nOverall bit rate                 : 472 Kbps\n\nVideo\nID                               : 1\nFormat                           : AVC\nFormat/Info                      : Advanced Video Codec\nFormat profile                   : &lt;a class=&quot;__cf_email__&quot; href=&quot;/cdn-cgi/l/email-protection&quot; data-cfemail=&quot;2c64454b446c6018021c&quot;&gt;[email&amp;#160;protected]&lt;/a&gt;&lt;script cf-hash='f9e31' type=&quot;text/javascript&quot;&gt;\n/* &lt;![CDATA[ */!function(){try{var t=&quot;currentScript&quot;in document?document.currentScript:function(){for(var t=document.getElementsByTagName(&quot;script&quot;),e=t.length;e--;)if(t[e].getAttribute(&quot;cf-hash&quot;))return t[e]}();if(t&amp;&amp;t.previousSibling){var e,r,n,i,c=t.previousSibling,a=c.getAttribute(&quot;data-cfemail&quot;);if(a){for(e=&quot;&quot;,r=parseInt(a.substr(0,2),16),n=2;a.length-n;n+=2)i=parseInt(a.substr(n,2),16)^r,e+=String.fromCharCode(i);e=document.createTextNode(e),c.parentNode.replaceChild(e,c)}}}catch(u){}}();/* ]]&gt; */&lt;/script&gt;\nFormat settings, CABAC           : Yes\nFormat settings, ReFrames        : 3 frames\nCodec ID                         : V_MPEG4/ISO/AVC\nDuration                         : 1h 32mn\nBit rate mode                    : Variable\nBit rate                         : 343 Kbps\nMaximum bit rate                 : 25.0 Mbps\nWidth                            : 656 pixels\nHeight                           : 496 pixels\nDisplay aspect ratio             : 4:3\nFrame rate                       : 23.976 fps\nColor space                      : YUV\nChroma subsampling               : 4:2:0\nBit depth                        : 8 bits\nScan type                        : Progressive\nBits/(Pixel*Frame)               : 0.044\nStream size                      : 221 MiB (71%)\n\nAudio\nID                               : 2\nFormat                           : MPEG Audio\nFormat version                   : Version 1\nFormat profile                   : Layer 2\nCodec ID                         : A_MPEG/L2\nCodec ID/Hint                    : MP2\nDuration                         : 1h 32mn\nBit rate mode                    : Constant\nBit rate                         : 128 Kbps\nChannel(s)                       : 2 channels\nSampling rate                    : 44.1 KHz\nCompression mode                 : Lossy\nStream size                      : 84.4 MiB (27%)\n\n\n\nGeneral Info :---  (Disc 2) :---\n\n\nFormat                           : Matroska\nFile size                        : 311 MiB\nDuration                         : 1h 32mn\nOverall bit rate                 : 471 Kbps\n\nVideo\nID                               : 1\nFormat                           : AVC\nFormat/Info                      : Advanced Video Codec\nFormat profile                   : &lt;a class=&quot;__cf_email__&quot; href=&quot;/cdn-cgi/l/email-protection&quot; data-cfemail=&quot;1a52737d725a562e342a&quot;&gt;[email&amp;#160;protected]&lt;/a&gt;&lt;script cf-hash='f9e31' type=&quot;text/javascript&quot;&gt;\n/* &lt;![CDATA[ */!function(){try{var t=&quot;currentScript&quot;in document?document.currentScript:function(){for(var t=document.getElementsByTagName(&quot;script&quot;),e=t.length;e--;)if(t[e].getAttribute(&quot;cf-hash&quot;))return t[e]}();if(t&amp;&amp;t.previousSibling){var e,r,n,i,c=t.previousSibling,a=c.getAttribute(&quot;data-cfemail&quot;);if(a){for(e=&quot;&quot;,r=parseInt(a.substr(0,2),16),n=2;a.length-n;n+=2)i=parseInt(a.substr(n,2),16)^r,e+=String.fromCharCode(i);e=document.createTextNode(e),c.parentNode.replaceChild(e,c)}}}catch(u){}}();/* ]]&gt; */&lt;/script&gt;\nFormat settings, CABAC           : Yes\nFormat settings, ReFrames        : 3 frames\nCodec ID                         : V_MPEG4/ISO/AVC\nDuration                         : 1h 32mn\nBit rate mode                    : Variable\nBit rate                         : 342 Kbps\nMaximum bit rate                 : 25.0 Mbps\nWidth                            : 656 pixels\nHeight                           : 496 pixels\nDisplay aspect ratio             : 4:3\nFrame rate                       : 23.976 fps\nColor space                      : YUV\nChroma subsampling               : 4:2:0\nBit depth                        : 8 bits\nScan type                        : Progressive\nBits/(Pixel*Frame)               : 0.044\nStream size                      : 220 MiB (71%)\n\nAudio\nID                               : 2\nFormat                           : MPEG Audio\nFormat version                   : Version 1\nFormat profile                   : Layer 2\nCodec ID                         : A_MPEG/L2\nCodec ID/Hint                    : MP2\nDuration                         : 1h 32mn\nBit rate mode                    : Constant\nBit rate                         : 128 Kbps\nChannel(s)                       : 2 channels\nSampling rate                    : 44.1 KHz\nCompression mode                 : Lossy\nStream size                      : 84.5 MiB (27%)\n\n\n\n***************************** TPB IS BENEDICTION TO ME ****************************\n*                                                                                 *\n*\t\t\t\t\t\t\t\t\t\t  *\n*\t        *                       *                       *\t          *\n*              ***                     ***                     ***                *\n*\t      *****                   *****                   *****\t\t  *\n*            *******                 *******                 *******\t\t  *\n*           *********\t\t    *********               *********             *\n*          ***********\t           ***********             *********** \t\t  *\n*         *************           *************           *************           *\n*        ***************         ***************         ***************\t  *\n*       *****************       *****************       *****************         *\n*      *******************     *******************     *******************        *\n*     *** TPB IS D BEST ***   *** TPB IS D BEST ***   *** TPB IS D BEST *** \t  *\n*      *******************     *******************     *******************\t  *\n*       *****************       *****************       *****************         *\n*        ***************         ***************         ***************          *\n*         *************           *************           *************\t \t  *\n*          ***********             ***********             ***********            *\n*           *********               *********               *********             *\n*            *******                 *******                 *******              *\n*             *****                   *****\t\t      *****               *\n*\t       ***                     ***                     ***                *\n*\t        *                       *                       *                 *\n*\t\t\t\t\t\t\t\t\t\t  *\n*\t\t\t\t\t\t\t\t\t\t  *\n***************************** TPB IS BENEDICTION TO ME ****************************\n\n\n\n\n                          Seeding Time : ( 2:00 - 8:00 ) IST\n\n\n\n","torrent":{"xt":"urn:btih:a0ec75a4672302afcad425f7b8344fff14dcf658","amp;dn":"Salem%5C%27s+Lot+%281979%29+-+Uncut+184+min","amp;tr":["udp%3A%2F%2Ftracker.openbittorrent.com%3A80","udp%3A%2F%2Fopen.demonii.com%3A1337","udp%3A%2F%2Ftracker.coppersurfer.tk%3A6969","udp%3A%2F%2Fexodus.desync.com%3A6969"],"infoHash":"a0ec75a4672302afcad425f7b8344fff14dcf658","infoHashBuffer":{"type":"Buffer","data":[160,236,117,164,103,35,2,175,202,212,37,247,184,52,79,255,20,220,246,88]},"announce":[],"urlList":[]}}